<svg width="335" height="79" viewBox="0 0 335 79" fill="none" xmlns="http://www.w3.org/2000/svg">
<path d="M119.772 38.7225C120.072 34.7893 120.626 32.0653 121.433 30.5503C121.537 30.2964 121.664 30.0696 121.814 29.8698C121.56 29.7699 121.094 29.643 120.415 29.489C119.733 29.3391 119.24 29.1893 118.936 29.0395C118.183 28.1821 117.943 27.1353 118.218 25.8992C118.497 24.6631 119.015 23.8931 119.772 23.5893C125.57 21.2668 131.572 20.8257 137.777 22.2657C143.983 23.7016 149.154 26.792 153.292 31.5367C153.441 32.9476 153.416 34.2961 153.217 35.5822C153.013 36.8683 152.721 38.0149 152.343 39.0221C151.964 40.0335 151.333 41.0428 150.451 42.05C149.569 43.0614 148.776 43.9063 148.072 44.5847C147.365 45.2673 146.33 46.0123 144.969 46.8198C143.604 47.6272 142.531 48.2577 141.748 48.7114C140.97 49.1651 139.761 49.7186 138.121 50.3721C136.481 51.0297 135.307 51.4979 134.6 51.7768C133.892 52.0515 132.681 52.4926 130.966 53.1003C129.251 53.7038 128.167 54.0825 127.714 54.2365C127.564 55.5476 127.741 57.5017 128.244 60.0988C128.748 62.6959 128.85 64.65 128.55 65.961C128.092 67.2721 127.183 68.3313 125.822 69.1388C124.461 69.9462 122.998 70.148 121.433 69.7443C121.183 69.5945 120.63 69.0139 119.772 68.0025C118.761 60.1362 118.761 50.3762 119.772 38.7225ZM128.094 36.9807C128.094 37.5883 127.943 38.6351 127.639 40.1209C127.335 41.6109 127.222 42.7971 127.302 43.6795C127.376 44.5618 127.793 45.1279 128.55 45.3776C131.476 46.389 134.716 45.7459 138.271 43.4485C141.825 41.1552 144.031 38.3188 144.888 34.9392C142.77 33.3243 140.98 32.0632 139.519 31.1559C138.054 30.2485 136.213 29.4786 133.994 28.8459C131.776 28.2175 129.682 28.155 127.714 28.6586C127.614 28.6586 127.691 28.7731 127.945 29.002C128.194 29.2268 128.496 29.5535 128.85 29.9822C129.204 30.4109 129.381 30.8021 129.381 31.1559C129.381 31.8634 129.166 32.8477 128.737 34.1088C128.309 35.3699 128.094 36.3272 128.094 36.9807Z" fill="white"/>
<path d="M154.787 45.1888C154.787 43.9277 155.266 41.393 156.223 37.5847C157.184 33.7764 157.311 30.9649 156.604 29.1503C156.554 29.0005 156.454 28.6342 156.304 28.0515C156.15 27.473 156.061 27.0318 156.036 26.728C156.011 26.4241 155.986 26.0454 155.961 25.5917C155.936 25.1381 156.011 24.7593 156.185 24.4555C156.364 24.1558 156.631 23.904 156.985 23.7001C161.625 21.1279 166.443 20.6868 171.437 22.3765C176.428 24.0663 180.336 27.1816 183.162 31.7224C185.534 35.4558 183.114 39.6928 175.901 44.4333C177.566 53.311 179.986 60.8277 183.162 66.9833C183.516 67.6909 183.351 68.3214 182.669 68.875C181.99 69.4285 181.172 69.7303 180.215 69.7802C179.254 69.8302 178.421 69.6283 177.718 69.1747C175.849 67.6139 174.461 65.4954 173.554 62.8192C172.646 60.1472 171.801 57.3732 171.019 54.4972C170.237 51.6212 169.088 49.3508 167.573 47.686C167.069 47.0825 166.112 46.8182 164.701 46.8931C163.29 46.968 162.408 47.3593 162.054 48.0668C161.346 50.3351 161.459 53.6273 162.391 57.9434C163.323 62.2552 163.817 64.9148 163.871 65.922C163.921 66.6296 163.365 67.2227 162.204 67.7013C161.043 68.1799 159.908 68.3194 158.801 68.1196C157.89 67.8158 157.157 67.0832 156.604 65.922C156 64.3612 155.559 62.5716 155.28 60.553C155.001 58.5344 154.824 57.0215 154.75 56.0142C154.675 55.0029 154.662 53.0217 154.712 50.0708C154.762 47.1199 154.787 45.4926 154.787 45.1888ZM163.565 35.3559C163.515 35.4558 163.363 35.8345 163.109 36.4921C162.859 37.1456 162.697 37.6242 162.622 37.9281C162.543 38.2319 162.466 38.6356 162.391 39.1392C162.316 39.6428 162.341 40.0216 162.466 40.2755C162.595 40.5252 162.836 40.7 163.19 40.7999C165.359 41.3076 167.602 41.2577 169.92 40.65C172.243 40.0465 174.236 39.0123 175.901 37.5472C176.455 37.2975 176.921 36.9188 177.3 36.411C177.678 35.9074 177.691 35.4287 177.337 34.9751C175.522 31.1918 171.891 28.9984 166.443 28.3949C165.585 28.2908 164.98 28.63 164.626 29.4125C164.272 30.195 164.033 31.2813 163.908 32.6714C163.779 34.0573 163.665 34.9522 163.565 35.3559Z" fill="white"/>
<path d="M187.191 48.4056C188.199 44.8762 190.153 41.7235 193.054 38.9474C195.955 36.1754 199.132 34.6126 202.587 34.2588C206.041 33.905 209.333 35.5948 212.463 39.3282C215.335 43.2114 216.317 47.4733 215.41 52.114C214.503 56.7547 212.132 60.3611 208.299 62.9333C205.777 64.648 203.18 65.545 200.508 65.624C197.832 65.699 195.334 64.929 193.016 63.3141C190.644 61.5494 188.889 59.3289 187.753 56.6527C186.621 53.9807 186.434 51.2317 187.191 48.4056ZM195.058 53.0255C195.561 55.2938 196.456 57.1085 197.742 58.4695C199.028 59.8305 200.631 60.0823 202.549 59.2249C204.922 58.1178 206.574 56.3156 207.506 53.8184C208.439 51.3212 208.576 48.7095 207.918 45.9833C207.569 44.6223 206.587 43.6526 204.972 43.074C203.357 42.4914 201.844 42.3519 200.433 42.6558C199.222 42.8597 197.961 44.3227 196.65 47.0446C195.334 49.7708 194.804 51.7644 195.058 53.0255Z" fill="white"/>
<path d="M221.766 74.514C220.908 74.1603 220.405 73.4777 220.255 72.4663C220.105 71.4591 220.155 70.5518 220.405 69.7443C220.609 68.4333 221.453 65.4699 222.939 60.8542C224.429 56.2385 225.047 52.8714 224.793 50.7529C224.44 48.0809 222.914 43.7939 220.217 37.8922C217.52 31.9904 215.995 27.6015 215.641 24.7255C215.487 23.5643 216.205 22.6174 217.795 21.8849C219.385 21.1524 220.584 21.1649 221.391 21.9224C222.602 22.9837 223.559 24.713 224.263 27.1104C224.97 29.5035 225.665 31.9737 226.348 34.5209C227.026 37.0681 227.871 38.9472 228.883 40.1584C229.69 39.1012 230.737 36.3397 232.023 31.8738C233.309 27.408 234.784 24.5715 236.449 23.3645C237.257 22.7569 238.164 22.453 239.171 22.453C240.179 22.453 240.986 22.7298 241.594 23.2834C242.197 23.8411 242.322 24.5486 241.968 25.406C237.835 35.6447 234.961 42.5037 233.346 45.9832C232.639 48.1017 232.966 50.0453 234.327 51.8142C234.78 52.2679 234.68 53.3022 234.027 54.917C233.773 55.1168 233.143 55.3936 232.135 55.7474C231.124 56.1011 230.493 56.6047 230.244 57.2582C228.275 66.2898 227.064 71.5881 226.61 73.1531C226.41 73.7566 225.867 74.2477 224.981 74.6264C224.098 75.0052 223.027 74.9677 221.766 74.514Z" fill="white"/>
<path d="M252.869 59.4559C250.596 59.4559 248.767 58.8753 247.381 57.7141C245.995 56.5528 244.848 55.0899 243.941 53.3252C243.183 50.3993 243.081 47.0322 243.635 43.2239C244.189 39.4156 245.878 36.5521 248.704 34.6334C249.512 34.1298 250.307 34.0798 251.089 34.4836C251.872 34.8873 252.338 35.4429 252.488 36.1505C252.891 37.6113 252.488 39.7548 251.277 42.5808C250.065 45.4069 249.714 47.6003 250.221 49.161C250.621 50.4762 251.693 51.498 253.437 52.2264C255.176 52.9589 256.525 52.9464 257.482 52.1889C258.643 51.2816 259.463 49.8186 259.942 47.8001C260.421 45.7856 260.685 43.869 260.735 42.0502C260.785 40.2355 261.238 38.5457 262.096 36.9808C262.953 35.4159 264.341 34.5085 266.26 34.2588C267.471 35.1162 268.164 36.2379 268.339 37.6238C268.518 39.0098 268.353 40.3479 267.846 41.6381C267.342 42.9242 266.851 44.4121 266.372 46.1019C265.894 47.7917 265.729 49.1902 265.879 50.2973C265.983 50.8009 266.048 51.2941 266.073 51.7769C266.098 52.2555 266.073 52.6717 265.998 53.0255C265.919 53.3751 265.792 53.7788 265.617 54.2367C265.442 54.6903 265.29 55.0545 265.161 55.3292C265.036 55.6081 264.834 55.9868 264.556 56.4654C264.281 56.9441 264.091 57.3103 263.987 57.5642C263.484 58.8753 263.132 59.8971 262.932 60.6296C262.728 61.3579 262.552 62.4172 262.402 63.8073C262.248 65.1933 262.4 66.29 262.857 67.0974C262.957 67.4512 262.855 67.7779 262.552 68.0776C262.248 68.3814 261.819 68.6977 261.265 69.0265C260.712 69.3553 260.333 69.6196 260.129 69.8194C258.718 70.8807 257.332 70.477 255.971 68.6082C255.364 67.9548 255.199 66.5438 255.478 64.3754C255.757 62.2028 255.794 60.6878 255.59 59.8305C255.59 59.4808 255.464 59.279 255.21 59.2249C254.96 59.1749 254.571 59.202 254.042 59.306C253.509 59.4059 253.118 59.4559 252.869 59.4559Z" fill="white"/>
<path d="M271.554 48.5614C271.454 44.7781 272.64 41.7253 275.113 39.4029C277.585 37.0804 280.663 36.1731 284.346 36.6809C287.372 37.0846 290.007 38.5476 292.25 41.0698C294.493 43.592 295.59 46.4159 295.54 49.5416C295.086 50.9525 293.005 52.7568 289.297 54.9544C285.593 57.1478 283.487 58.4963 282.979 58.9999C282.729 59.0498 282.415 59.2517 282.036 59.6055C281.658 59.9592 281.57 60.288 281.774 60.5919C282.378 61.699 283.133 62.4794 284.04 62.933C284.948 63.3867 285.969 63.5136 287.106 63.3138C288.242 63.1099 289.276 62.8331 290.208 62.4835C291.141 62.1297 292.237 61.6241 293.499 60.9664C294.81 61.9778 295.226 63.3284 294.747 65.0182C294.269 66.708 293.247 67.6778 291.682 67.9275C291.582 67.9275 291.028 68.017 290.021 68.1959C289.01 68.3707 288.379 68.4706 288.13 68.4956C287.876 68.5206 287.32 68.5705 286.463 68.6454C285.605 68.7245 284.95 68.7245 284.496 68.6454C284.042 68.5705 283.487 68.4706 282.829 68.3458C282.176 68.2209 281.545 68.0315 280.938 67.7776C274.886 65.0557 271.758 58.6503 271.554 48.5614ZM279.801 52.4197C284.342 52.2157 287.066 50.6258 287.973 47.65C288.781 45.8853 288.125 44.5367 286.007 43.6044C283.888 42.668 281.997 42.6284 280.332 43.4858C279.325 44.0435 278.657 45.0404 278.328 46.4763C277.999 47.9163 278.012 49.2544 278.365 50.4906C278.719 51.7267 279.198 52.3697 279.801 52.4197ZM273.296 22.9086C274.761 21.5976 276.413 21.1814 278.253 21.66C280.093 22.1387 281.316 23.1355 281.924 24.6505C282.681 26.3652 282.554 28.1424 281.543 29.982C280.536 31.8217 279.048 32.4647 277.079 31.9112C275.514 31.4575 274.607 31.1037 274.357 30.8498C272.742 29.339 271.935 27.7262 271.935 26.0115C271.935 24.8003 272.389 23.766 273.296 22.9086ZM292.893 23.1334C293.75 23.637 294.244 24.432 294.373 25.5183C294.497 26.6045 294.333 27.5493 293.879 28.3526C293.322 29.6678 292.325 30.7146 290.889 31.4929C289.453 32.2753 288.154 32.2629 286.993 31.4554C286.086 30.8519 285.468 30.0466 285.139 29.0393C284.81 28.028 284.798 27.0686 285.102 26.1613C285.405 25.254 285.909 24.4215 286.612 23.6641C287.32 22.9066 288.229 22.4779 289.341 22.378C290.448 22.2781 291.632 22.5299 292.893 23.1334Z" fill="white"/>
<path d="M297.432 47.5003C297.132 44.5744 297.461 42.1396 298.418 40.1959C299.375 38.2564 301.065 37.6904 303.487 38.4978C304.345 38.7975 304.9 39.3635 305.154 40.1959C305.404 41.0283 305.417 41.9378 305.192 42.9242C304.963 43.9064 304.836 44.9261 304.811 45.9833C304.786 47.0446 304.975 47.929 305.379 48.6366C306.087 47.929 306.792 46.9072 307.495 45.5712C308.203 44.2352 308.796 43.0365 309.275 41.9752C309.753 40.9181 310.384 39.8588 311.166 38.7975C311.949 37.7403 312.756 37.1223 313.589 36.9433C314.421 36.7685 315.568 36.9079 317.029 37.3616C317.736 38.1191 318.192 38.5977 318.396 38.7975C318.596 39.6049 318.785 41.0055 318.964 42.9991C319.139 44.9885 319.403 46.489 319.757 47.5003C320.111 47.0966 320.589 46.4786 321.193 45.6461C321.796 44.8137 322.3 44.1208 322.704 43.5672C323.107 43.0095 323.625 42.3789 324.258 41.6755C324.887 40.968 325.492 40.4248 326.075 40.0461C326.653 39.6674 327.284 39.3136 327.967 38.9848C328.645 38.6601 329.35 38.5228 330.083 38.5727C330.815 38.6227 331.585 38.8245 332.393 39.1783C332.896 39.5279 333.236 40.0066 333.41 40.6142C333.589 41.2177 333.679 42.0002 333.679 42.9616C333.679 43.9189 333.704 44.5494 333.754 44.8533C335.015 55.5955 334.434 64.4982 332.012 71.5612C331.708 72.8223 330.863 73.5798 329.477 73.8336C328.091 74.0834 326.818 73.8045 325.657 72.9971C325.557 72.9971 325.457 72.8597 325.357 72.585C325.253 72.3062 325.201 71.9649 325.201 71.5612C325.201 71.1574 325.253 70.7787 325.357 70.4249C327.425 64.1194 327.879 56.6027 326.718 47.8749C326.718 47.1715 326.364 47.1466 325.657 47.8C325.353 48.0539 325.151 48.3327 325.051 48.6366C322.379 52.8236 320.26 57.9429 318.696 63.9945C318.142 65.3056 317.07 66.2254 315.48 66.754C313.89 67.2867 312.642 66.8705 311.735 65.5054C311.938 63.1372 312.078 60.3881 312.153 57.2583C312.228 54.1326 311.988 51.6353 311.435 49.7666C309.466 51.3315 308.041 53.4 307.158 55.9722C306.276 58.5443 305.381 61.7221 304.474 65.5054C303.766 66.6166 302.68 67.1723 301.215 67.1723C299.754 67.1723 298.822 66.6166 298.418 65.5054C297.71 63.4909 297.407 60.5796 297.507 56.7713C297.611 52.9589 297.586 49.8685 297.432 47.5003Z" fill="white"/>
<path opacity="0.8" d="M43.2866 79.0001C61.1448 79.0001 75.6217 64.5232 75.6217 46.665C75.6217 28.8068 61.1448 14.3298 43.2866 14.3298C25.4283 14.3298 10.9514 28.8068 10.9514 46.665C10.9514 64.5232 25.4283 79.0001 43.2866 79.0001Z" fill="#004CF2"/>
<path opacity="0.8" d="M62.3694 53.4217C73.5641 53.4217 82.6392 44.3466 82.6392 33.1519C82.6392 21.9572 73.5641 12.8821 62.3694 12.8821C51.1747 12.8821 42.0996 21.9572 42.0996 33.1519C42.0996 44.3466 51.1747 53.4217 62.3694 53.4217Z" fill="#FBA536"/>
<path opacity="0.7" d="M50.0431 9.46706C52.6574 9.46706 54.7766 7.34779 54.7766 4.73353C54.7766 2.11927 52.6574 0 50.0431 0C47.4288 0 45.3096 2.11927 45.3096 4.73353C45.3096 7.34779 47.4288 9.46706 50.0431 9.46706Z" fill="#FF5362"/>
<path opacity="0.8" d="M33.9317 64.0392C48.0583 64.0392 59.5102 52.5873 59.5102 38.4606C59.5102 24.334 48.0583 12.8821 33.9317 12.8821C19.8051 12.8821 8.35315 24.334 8.35315 38.4606C8.35315 52.5873 19.8051 64.0392 33.9317 64.0392Z" fill="#6319C3"/>
<path opacity="0.8" d="M57.8771 77.4034C68.1901 77.4034 76.5504 69.0431 76.5504 58.7301C76.5504 48.4172 68.1901 40.0569 57.8771 40.0569C47.5642 40.0569 39.2039 48.4172 39.2039 58.7301C39.2039 69.0431 47.5642 77.4034 57.8771 77.4034Z" fill="#FF5362"/>
<path opacity="0.7" d="M2.26437 44.4007C3.51495 44.4007 4.52874 45.4145 4.52874 46.6651C4.52874 47.9156 3.51495 48.9294 2.26437 48.9294C1.01379 48.9294 0 47.9156 0 46.6651C0 45.4145 1.01379 44.4007 2.26437 44.4007Z" fill="#6319C3"/>
<path opacity="0.7" d="M83.3435 55.5847C84.7738 55.5847 85.9333 54.4252 85.9333 52.9948C85.9333 51.5645 84.7738 50.405 83.3435 50.405C81.9132 50.405 80.7537 51.5645 80.7537 52.9948C80.7537 54.4252 81.9132 55.5847 83.3435 55.5847Z" fill="#FF5362"/>
<path opacity="0.7" d="M93.4784 48.9292C96.508 48.9292 98.9639 46.4733 98.9639 43.4437C98.9639 40.4142 96.508 37.9583 93.4784 37.9583C90.4489 37.9583 87.9929 40.4142 87.9929 43.4437C87.9929 46.4733 90.4489 48.9292 93.4784 48.9292Z" fill="#004CF2"/>
<path opacity="0.7" d="M11.8159 76.5406C13.3896 76.5406 14.6653 75.2648 14.6653 73.6912C14.6653 72.1175 13.3896 70.8418 11.8159 70.8418C10.2423 70.8418 8.96655 72.1175 8.96655 73.6912C8.96655 75.2648 10.2423 76.5406 11.8159 76.5406Z" fill="#FBA536"/>
</svg>
