<svg width="31" height="31" viewBox="0 0 31 31" fill="none" xmlns="http://www.w3.org/2000/svg">
<circle cx="15.5" cy="15.5" r="15.5" fill="#373737"/>
<path d="M20.8401 10.1797C19.4277 8.77344 17.5466 8 15.5476 8C11.4216 8 8.06405 11.3348 8.06405 15.433C8.06405 16.7422 8.40789 18.0212 9.06186 19.1496L8 23L11.9677 21.9654C13.0599 22.558 14.2903 22.8694 15.5443 22.8694H15.5476C19.6704 22.8694 23.102 19.5346 23.102 15.4364C23.102 13.4509 22.2526 11.5859 20.8401 10.1797ZM15.5476 21.6172C14.4285 21.6172 13.3329 21.3192 12.3789 20.7567L12.1531 20.6228L9.80011 21.2355L10.4271 18.9554L10.2788 18.721C9.65516 17.7366 9.32817 16.6016 9.32817 15.433C9.32817 12.0279 12.1194 9.25558 15.551 9.25558C17.2129 9.25558 18.7737 9.89844 19.9468 11.067C21.1199 12.2355 21.8413 13.7857 21.8379 15.4364C21.8379 18.8449 18.9759 21.6172 15.5476 21.6172ZM18.9591 16.99C18.7737 16.8962 17.8534 16.4475 17.6815 16.3873C17.5096 16.3237 17.3848 16.2935 17.2601 16.481C17.1354 16.6685 16.7781 17.0837 16.6668 17.2109C16.5589 17.3348 16.4477 17.3516 16.2623 17.2578C15.1634 16.7121 14.442 16.2835 13.7172 15.048C13.5251 14.7199 13.9093 14.7433 14.2667 14.0335C14.3274 13.9096 14.297 13.8025 14.2498 13.7087C14.2026 13.615 13.8284 12.7009 13.6734 12.3292C13.5217 11.9676 13.3666 12.0179 13.252 12.0112C13.1441 12.0045 13.0194 12.0045 12.8947 12.0045C12.77 12.0045 12.5677 12.0513 12.3958 12.2355C12.2239 12.423 11.7418 12.8717 11.7418 13.7857C11.7418 14.6998 12.4126 15.5837 12.5036 15.7076C12.598 15.8315 13.8217 17.7065 15.6993 18.5134C16.8859 19.0223 17.3511 19.0658 17.9444 18.9788C18.3051 18.9252 19.0501 18.5301 19.2052 18.0949C19.3602 17.6596 19.3602 17.2879 19.313 17.2109C19.2692 17.1272 19.1445 17.0804 18.9591 16.99Z" fill="#F5F5F5"/>
</svg>
