<svg width="31" height="31" viewBox="0 0 31 31" fill="none" xmlns="http://www.w3.org/2000/svg">
<circle cx="15.5" cy="15.5" r="15.5" fill="#373737"/>
<path d="M9.40625 9.875C8.62988 9.875 8 10.5049 8 11.2812C8 11.7236 8.20801 12.1396 8.5625 12.4062L14.9375 17.1875C15.2715 17.4365 15.7285 17.4365 16.0625 17.1875L22.4375 12.4062C22.792 12.1396 23 11.7236 23 11.2812C23 10.5049 22.3701 9.875 21.5938 9.875H9.40625ZM8 13.1562V19.25C8 20.2842 8.84082 21.125 9.875 21.125H21.125C22.1592 21.125 23 20.2842 23 19.25V13.1562L16.625 17.9375C15.957 18.4385 15.043 18.4385 14.375 17.9375L8 13.1562Z" fill="#F5F5F5"/>
</svg>
