<svg width="31" height="31" viewBox="0 0 31 31" fill="none" xmlns="http://www.w3.org/2000/svg">
<circle cx="15.5" cy="15.5" r="15.5" fill="#373737"/>
<path d="M8.82195 15.3799C12.7494 13.6521 17.8319 11.5455 18.5335 11.254C20.3738 10.4908 20.9385 10.6371 20.6569 12.3271C20.4548 13.5418 19.8713 17.5633 19.4063 20.0665C19.1304 21.5508 18.5113 21.7268 17.5379 21.0846C17.0698 20.7755 14.7069 19.213 14.1941 18.8462C13.726 18.5118 13.0804 18.1096 13.8901 17.3174C14.1782 17.0352 16.0669 15.2318 17.5385 13.828C17.7313 13.6437 17.4891 13.3408 17.2666 13.4886C15.2832 14.804 12.5332 16.6296 12.1832 16.8674C11.6544 17.2265 11.1466 17.3912 10.2351 17.1293C9.54632 16.9315 8.87351 16.6955 8.61163 16.6055C7.6032 16.2593 7.84257 15.8108 8.82195 15.3799Z" fill="#F5F5F5"/>
</svg>
