<svg width="31" height="31" viewBox="0 0 31 31" fill="none" xmlns="http://www.w3.org/2000/svg">
<circle cx="15.5" cy="15.5" r="15.5" fill="#F5F5F5"/>
<path d="M15.5017 11.6542C13.3734 11.6542 11.6567 13.3712 11.6567 15.5C11.6567 17.6288 13.3734 19.3458 15.5017 19.3458C17.63 19.3458 19.3466 17.6288 19.3466 15.5C19.3466 13.3712 17.63 11.6542 15.5017 11.6542ZM15.5017 18.0003C14.1263 18.0003 13.002 16.879 13.002 15.5C13.002 14.121 14.123 12.9997 15.5017 12.9997C16.8804 12.9997 18.0014 14.121 18.0014 15.5C18.0014 16.879 16.877 18.0003 15.5017 18.0003ZM20.4007 11.4969C20.4007 11.9956 19.9992 12.3939 19.5039 12.3939C19.0053 12.3939 18.6071 11.9922 18.6071 11.4969C18.6071 11.0015 19.0086 10.5999 19.5039 10.5999C19.9992 10.5999 20.4007 11.0015 20.4007 11.4969ZM22.9473 12.4073C22.8904 11.2057 22.616 10.1413 21.7359 9.26436C20.8592 8.38743 19.795 8.11296 18.5937 8.05272C17.3555 7.98243 13.6445 7.98243 12.4063 8.05272C11.2083 8.10962 10.1442 8.38408 9.26408 9.26102C8.38399 10.138 8.11294 11.2023 8.0527 12.4039C7.98243 13.6424 7.98243 17.3543 8.0527 18.5927C8.10959 19.7943 8.38399 20.8587 9.26408 21.7356C10.1442 22.6126 11.205 22.887 12.4063 22.9473C13.6445 23.0176 17.3555 23.0176 18.5937 22.9473C19.795 22.8904 20.8592 22.6159 21.7359 21.7356C22.6127 20.8587 22.8871 19.7943 22.9473 18.5927C23.0176 17.3543 23.0176 13.6457 22.9473 12.4073ZM21.3477 19.9215C21.0867 20.5775 20.5814 21.083 19.9222 21.3474C18.935 21.739 16.5926 21.6486 15.5017 21.6486C14.4108 21.6486 12.065 21.7356 11.0811 21.3474C10.4253 21.0863 9.91997 20.5809 9.65561 19.9215C9.26408 18.9341 9.35443 16.5912 9.35443 15.5C9.35443 14.4088 9.26743 12.0625 9.65561 11.0785C9.91662 10.4225 10.4219 9.91705 11.0811 9.65263C12.0683 9.26102 14.4108 9.35139 15.5017 9.35139C16.5926 9.35139 18.9384 9.26436 19.9222 9.65263C20.5781 9.9137 21.0834 10.4191 21.3477 11.0785C21.7393 12.0659 21.6489 14.4088 21.6489 15.5C21.6489 16.5912 21.7393 18.9375 21.3477 19.9215Z" fill="#232323" fill-opacity="0.5"/>
</svg>
