<svg width="235" height="56" viewBox="0 0 235 56" fill="none" xmlns="http://www.w3.org/2000/svg">
<path d="M84.1698 27.2122C84.3804 24.4482 84.7694 22.5338 85.3368 21.4692C85.41 21.2908 85.4992 21.1314 85.6045 20.991C85.426 20.9208 85.0985 20.8316 84.6217 20.7233C84.142 20.6181 83.7954 20.5128 83.5819 20.4075C83.0525 19.8049 82.8843 19.0693 83.0774 18.2006C83.2733 17.332 83.6375 16.7909 84.1698 16.5773C88.2442 14.9453 92.4618 14.6352 96.8228 15.6472C101.184 16.6563 104.818 18.828 107.725 22.1624C107.831 23.1539 107.813 24.1016 107.673 25.0054C107.529 25.9092 107.325 26.715 107.058 27.4228C106.792 28.1335 106.349 28.8428 105.729 29.5506C105.109 30.2614 104.552 30.8551 104.057 31.3319C103.56 31.8115 102.833 32.3351 101.877 32.9025C100.918 33.4699 100.163 33.9131 99.6131 34.2319C99.0662 34.5507 98.2165 34.9397 97.0641 35.3989C95.9117 35.861 95.0869 36.1901 94.5897 36.386C94.0924 36.5791 93.2413 36.8891 92.0363 37.3162C90.8312 37.7403 90.0693 38.0064 89.7505 38.1146C89.6452 39.036 89.7695 40.4092 90.1234 42.2343C90.4773 44.0595 90.549 45.4327 90.3384 46.354C90.0166 47.2754 89.3775 48.0197 88.4211 48.5872C87.4647 49.1546 86.4366 49.2964 85.3368 49.0127C85.1613 48.9074 84.7723 48.4994 84.1698 47.7887C83.4591 42.2607 83.4591 35.4018 84.1698 27.2122ZM90.0181 25.9881C90.0181 26.4152 89.9113 27.1508 89.6978 28.1949C89.4843 29.242 89.4053 30.0756 89.4609 30.6957C89.5136 31.3158 89.806 31.7136 90.3384 31.8891C92.3946 32.5998 94.6716 32.1479 97.1694 30.5334C99.6673 28.9218 101.217 26.9285 101.82 24.5535C100.331 23.4186 99.0735 22.5324 98.0469 21.8948C97.0173 21.2571 95.7231 20.716 94.1641 20.2715C92.6052 19.8298 91.1339 19.7859 89.7505 20.1398C89.6803 20.1398 89.7344 20.2203 89.9128 20.3811C90.0883 20.5391 90.3003 20.7687 90.549 21.0699C90.7976 21.3712 90.9219 21.6461 90.9219 21.8948C90.9219 22.392 90.7712 23.0837 90.47 23.97C90.1687 24.8562 90.0181 25.5289 90.0181 25.9881Z" fill="#232323"/>
<path d="M108.776 31.7563C108.776 30.8701 109.113 29.0888 109.785 26.4126C110.461 23.7363 110.55 21.7606 110.053 20.4853C110.018 20.38 109.948 20.1226 109.842 19.7132C109.734 19.3066 109.671 18.9966 109.654 18.7831C109.636 18.5695 109.619 18.3034 109.601 17.9846C109.584 17.6658 109.636 17.3996 109.759 17.1861C109.885 16.9755 110.072 16.7985 110.321 16.6552C113.582 14.8476 116.967 14.5376 120.477 15.7251C123.984 16.9126 126.731 19.1019 128.717 22.2929C130.384 24.9165 128.683 27.894 123.614 31.2255C124.784 37.4642 126.485 42.7465 128.717 47.0724C128.965 47.5697 128.85 48.0128 128.37 48.4018C127.893 48.7908 127.318 49.0028 126.646 49.0379C125.97 49.073 125.385 48.9312 124.891 48.6124C123.578 47.5155 122.602 46.0268 121.965 44.1461C121.327 42.2683 120.733 40.3189 120.183 38.2978C119.633 36.2767 118.826 34.6812 117.761 33.5113C117.408 33.0871 116.735 32.9014 115.743 32.9541C114.752 33.0067 114.132 33.2817 113.883 33.7789C113.386 35.3729 113.465 37.6865 114.12 40.7196C114.775 43.7498 115.122 45.6188 115.16 46.3266C115.195 46.8238 114.804 47.2406 113.988 47.577C113.172 47.9133 112.375 48.0113 111.597 47.8709C110.957 47.6574 110.442 47.1426 110.053 46.3266C109.629 45.2298 109.319 43.9721 109.123 42.5535C108.927 41.1349 108.803 40.0717 108.75 39.3639C108.697 38.6532 108.689 37.2609 108.724 35.1872C108.759 33.1135 108.776 31.9698 108.776 31.7563ZM114.945 24.8463C114.91 24.9165 114.803 25.1827 114.625 25.6448C114.449 26.104 114.335 26.4404 114.282 26.6539C114.227 26.8674 114.173 27.1511 114.12 27.505C114.067 27.8589 114.085 28.1251 114.173 28.3035C114.263 28.479 114.433 28.6019 114.682 28.6721C116.205 29.0289 117.782 28.9938 119.411 28.5668C121.043 28.1426 122.444 27.4158 123.614 26.3863C124.003 26.2108 124.331 25.9446 124.597 25.5878C124.863 25.2339 124.872 24.8975 124.623 24.5787C123.348 21.92 120.796 20.3786 116.967 19.9545C116.365 19.8813 115.939 20.1197 115.691 20.6696C115.442 21.2195 115.274 21.9829 115.186 22.9598C115.095 23.9338 115.015 24.5626 114.945 24.8463Z" fill="#232323"/>
<path d="M131.548 34.0169C132.256 31.5366 133.629 29.321 135.668 27.3701C137.707 25.4222 139.94 24.3239 142.367 24.0753C144.795 23.8267 147.109 25.0142 149.308 27.6378C151.326 30.3667 152.017 33.3618 151.379 36.623C150.741 39.8842 149.076 42.4186 146.382 44.2262C144.609 45.4312 142.784 46.0616 140.907 46.1171C139.026 46.1698 137.271 45.6287 135.642 44.4938C133.975 43.2537 132.742 41.6933 131.943 39.8126C131.148 37.9348 131.016 36.0029 131.548 34.0169ZM137.076 37.2635C137.43 38.8576 138.059 40.1328 138.963 41.0893C139.867 42.0457 140.993 42.2227 142.341 41.6201C144.008 40.8421 145.17 39.5756 145.825 37.8207C146.48 36.0658 146.576 34.2304 146.114 32.3146C145.869 31.3582 145.178 30.6767 144.043 30.2702C142.909 29.8607 141.845 29.7627 140.854 29.9762C140.003 30.1195 139.116 31.1476 138.195 33.0605C137.271 34.9763 136.898 36.3773 137.076 37.2635Z" fill="#232323"/>
<path d="M155.845 52.3646C155.243 52.116 154.889 51.6363 154.784 50.9256C154.678 50.2178 154.713 49.5802 154.889 49.0127C155.032 48.0914 155.626 46.0089 156.67 42.7652C157.717 39.5215 158.152 37.1553 157.973 35.6665C157.725 33.7888 156.653 30.7761 154.757 26.6287C152.862 22.4812 151.79 19.3969 151.541 17.3758C151.433 16.5598 151.938 15.8944 153.055 15.3796C154.172 14.8648 155.015 14.8736 155.582 15.4059C156.433 16.1518 157.106 17.3671 157.6 19.0518C158.097 20.7336 158.586 22.4695 159.066 24.2595C159.542 26.0496 160.136 27.3701 160.847 28.2213C161.414 27.4784 162.15 25.5377 163.054 22.3993C163.957 19.2609 164.994 17.2676 166.164 16.4194C166.732 15.9924 167.369 15.7789 168.077 15.7789C168.785 15.7789 169.352 15.9734 169.779 16.3624C170.204 16.7543 170.291 17.2515 170.043 17.8541C167.138 25.0492 165.119 29.8694 163.984 32.3146C163.487 33.8034 163.716 35.1693 164.673 36.4124C164.991 36.7312 164.921 37.458 164.462 38.5929C164.284 38.7333 163.84 38.9278 163.133 39.1764C162.422 39.425 161.979 39.7789 161.803 40.2381C160.42 46.5851 159.569 50.3085 159.25 51.4082C159.109 51.8323 158.728 52.1774 158.105 52.4436C157.485 52.7098 156.732 52.6835 155.845 52.3646Z" fill="#232323"/>
<path d="M177.735 41.7386C176.138 41.7386 174.853 41.3306 173.879 40.5145C172.905 39.6985 172.099 38.6704 171.461 37.4303C170.929 35.3741 170.857 33.0079 171.246 30.3316C171.635 27.6553 172.823 25.643 174.809 24.2947C175.376 23.9407 175.935 23.9056 176.485 24.1894C177.035 24.4731 177.362 24.8635 177.468 25.3608C177.751 26.3874 177.468 27.8937 176.616 29.8797C175.765 31.8657 175.518 33.4071 175.875 34.5039C176.156 35.4282 176.909 36.1462 178.134 36.6581C179.357 37.1729 180.305 37.1641 180.977 36.6318C181.793 35.9941 182.37 34.9661 182.706 33.5475C183.042 32.1319 183.228 30.7849 183.263 29.5068C183.298 28.2315 183.617 27.044 184.22 25.9443C184.822 24.8445 185.798 24.2069 187.146 24.0314C187.997 24.6339 188.484 25.4222 188.607 26.3962C188.733 27.3702 188.617 28.3105 188.26 29.2172C187.906 30.121 187.561 31.1666 187.225 32.3541C186.889 33.5416 186.773 34.5244 186.878 35.3024C186.951 35.6563 186.997 36.0029 187.014 36.3422C187.032 36.6786 187.014 36.9711 186.962 37.2197C186.906 37.4654 186.817 37.7491 186.694 38.0708C186.571 38.3896 186.464 38.6455 186.374 38.8386C186.286 39.0346 186.144 39.3007 185.948 39.6371C185.755 39.9734 185.622 40.2308 185.549 40.4092C185.195 41.3306 184.948 42.0486 184.808 42.5634C184.664 43.0753 184.54 43.8196 184.435 44.7966C184.326 45.7705 184.433 46.5412 184.755 47.1087C184.825 47.3573 184.753 47.5869 184.54 47.7975C184.326 48.011 184.025 48.2333 183.636 48.4643C183.247 48.6954 182.981 48.8811 182.838 49.0215C181.846 49.7674 180.872 49.4837 179.916 48.1704C179.489 47.7112 179.373 46.7197 179.569 45.1958C179.765 43.669 179.791 42.6044 179.648 42.0018C179.648 41.7561 179.559 41.6143 179.38 41.5763C179.205 41.5412 178.931 41.5602 178.56 41.6333C178.186 41.7035 177.911 41.7386 177.735 41.7386Z" fill="#232323"/>
<path d="M190.834 34.1266C190.764 31.4679 191.597 29.3225 193.335 27.6904C195.072 26.0583 197.235 25.4207 199.824 25.7775C201.95 26.0612 203.802 27.0893 205.378 28.8618C206.955 30.6343 207.725 32.6188 207.69 34.8154C207.371 35.8069 205.909 37.0749 203.303 38.6192C200.7 40.1606 199.22 41.1083 198.863 41.4622C198.687 41.4973 198.467 41.6391 198.2 41.8877C197.934 42.1364 197.873 42.3674 198.016 42.5809C198.44 43.3589 198.971 43.9074 199.609 44.2262C200.246 44.545 200.964 44.6342 201.763 44.4938C202.561 44.3505 203.288 44.156 203.943 43.9103C204.599 43.6617 205.369 43.3063 206.256 42.8442C207.177 43.5549 207.469 44.504 207.133 45.6915C206.797 46.879 206.079 47.5605 204.979 47.736C204.909 47.736 204.52 47.7989 203.812 47.9247C203.101 48.0475 202.658 48.1177 202.482 48.1353C202.304 48.1528 201.914 48.1879 201.311 48.2406C200.708 48.2961 200.248 48.2961 199.929 48.2406C199.61 48.1879 199.22 48.1177 198.758 48.03C198.298 47.9422 197.855 47.8091 197.428 47.6307C193.175 45.7179 190.977 41.2165 190.834 34.1266ZM196.63 36.8379C199.821 36.6946 201.735 35.5773 202.373 33.486C202.94 32.2459 202.479 31.2982 200.991 30.6431C199.502 29.985 198.173 29.9572 197.003 30.5597C196.295 30.9516 195.825 31.6521 195.594 32.6612C195.363 33.6732 195.372 34.6136 195.621 35.4823C195.869 36.351 196.206 36.8028 196.63 36.8379ZM192.058 16.0991C193.088 15.1778 194.249 14.8853 195.542 15.2217C196.834 15.558 197.694 16.2585 198.121 17.3232C198.654 18.5282 198.565 19.7772 197.854 21.07C197.146 22.3627 196.1 22.8146 194.717 22.4256C193.617 22.1068 192.98 21.8582 192.804 21.6798C191.669 20.6181 191.102 19.4847 191.102 18.2796C191.102 17.4285 191.421 16.7017 192.058 16.0991ZM205.83 16.2571C206.432 16.611 206.779 17.1696 206.87 17.933C206.957 18.6964 206.842 19.3604 206.523 19.9249C206.131 20.8491 205.431 21.5847 204.422 22.1317C203.413 22.6816 202.5 22.6728 201.684 22.1054C201.046 21.6812 200.612 21.1153 200.381 20.4075C200.15 19.6967 200.141 19.0225 200.355 18.3849C200.568 17.7473 200.922 17.1623 201.416 16.63C201.914 16.0977 202.553 15.7964 203.334 15.7262C204.112 15.656 204.944 15.833 205.83 16.2571Z" fill="#232323"/>
<path d="M209.019 33.3807C208.809 31.3246 209.04 29.6135 209.713 28.2476C210.385 26.8846 211.573 26.4868 213.275 27.0542C213.878 27.2648 214.268 27.6626 214.447 28.2476C214.622 28.8326 214.631 29.4717 214.473 30.1648C214.312 30.8551 214.223 31.5717 214.205 32.3146C214.188 33.0605 214.321 33.682 214.605 34.1792C215.102 33.682 215.598 32.964 216.092 32.0251C216.589 31.0862 217.006 30.2438 217.342 29.498C217.679 28.7551 218.122 28.0107 218.672 27.2648C219.221 26.5219 219.789 26.0876 220.374 25.9618C220.959 25.839 221.765 25.9369 222.791 26.2558C223.288 26.7881 223.609 27.1244 223.752 27.2648C223.892 27.8323 224.026 28.8165 224.151 30.2175C224.274 31.6156 224.46 32.67 224.709 33.3807C224.957 33.097 225.293 32.6627 225.718 32.0777C226.142 31.4927 226.496 31.0058 226.779 30.6167C227.063 30.2248 227.427 29.7817 227.872 29.2874C228.313 28.7902 228.739 28.4085 229.148 28.1423C229.555 27.8761 229.998 27.6275 230.478 27.3965C230.955 27.1683 231.45 27.0718 231.965 27.1069C232.48 27.142 233.021 27.2838 233.588 27.5325C233.942 27.7782 234.181 28.1145 234.304 28.5415C234.429 28.9657 234.492 29.5155 234.492 30.1912C234.492 30.8639 234.51 31.307 234.545 31.5205C235.431 39.0696 235.023 45.3259 233.321 50.2894C233.107 51.1757 232.514 51.708 231.54 51.8864C230.566 52.0619 229.671 51.8659 228.855 51.2985C228.784 51.2985 228.714 51.202 228.644 51.009C228.571 50.813 228.534 50.5732 228.534 50.2894C228.534 50.0057 228.571 49.7396 228.644 49.4909C230.098 45.0598 230.416 39.7774 229.6 33.644C229.6 33.1497 229.352 33.1321 228.855 33.5913C228.641 33.7698 228.499 33.9657 228.429 34.1792C226.551 37.1217 225.062 40.7193 223.963 44.972C223.574 45.8934 222.821 46.5398 221.703 46.9112C220.586 47.2856 219.708 46.9931 219.071 46.0338C219.214 44.3695 219.312 42.4376 219.365 40.2381C219.417 38.0415 219.249 36.2866 218.86 34.9733C217.477 36.0731 216.475 37.5268 215.855 39.3343C215.235 41.1419 214.606 43.375 213.968 46.0338C213.471 46.8147 212.708 47.2052 211.678 47.2052C210.652 47.2052 209.996 46.8147 209.713 46.0338C209.215 44.6181 209.002 42.5722 209.072 39.8959C209.145 37.2167 209.128 35.045 209.019 33.3807Z" fill="#232323"/>
<path opacity="0.8" d="M30.4196 55.5171C42.9694 55.5171 53.143 45.3435 53.143 32.7936C53.143 20.2438 42.9694 10.0702 30.4196 10.0702C17.8697 10.0702 7.69611 20.2438 7.69611 32.7936C7.69611 45.3435 17.8697 55.5171 30.4196 55.5171Z" fill="#004CF2"/>
<path opacity="0.8" d="M43.8299 37.5418C51.697 37.5418 58.0745 31.1643 58.0745 23.2973C58.0745 15.4302 51.697 9.05273 43.8299 9.05273C35.9629 9.05273 29.5854 15.4302 29.5854 23.2973C29.5854 31.1643 35.9629 37.5418 43.8299 37.5418Z" fill="#FBA536"/>
<path opacity="0.7" d="M35.1677 6.65296C37.0049 6.65296 38.4942 5.16364 38.4942 3.32648C38.4942 1.48932 37.0049 0 35.1677 0C33.3306 0 31.8412 1.48932 31.8412 3.32648C31.8412 5.16364 33.3306 6.65296 35.1677 6.65296Z" fill="#FF5362"/>
<path opacity="0.8" d="M23.8454 45.0033C33.7729 45.0033 41.8207 36.9555 41.8207 27.028C41.8207 17.1005 33.7729 9.05273 23.8454 9.05273C13.918 9.05273 5.87018 17.1005 5.87018 27.028C5.87018 36.9555 13.918 45.0033 23.8454 45.0033Z" fill="#6319C3"/>
<path opacity="0.8" d="M40.6731 54.3951C47.9205 54.3951 53.7957 48.52 53.7957 41.2726C53.7957 34.0251 47.9205 28.15 40.6731 28.15C33.4257 28.15 27.5505 34.0251 27.5505 41.2726C27.5505 48.52 33.4257 54.3951 40.6731 54.3951Z" fill="#FF5362"/>
<path opacity="0.7" d="M1.59128 31.2024C2.47012 31.2024 3.18257 31.9148 3.18257 32.7937C3.18257 33.6725 2.47012 34.3849 1.59128 34.3849C0.712442 34.3849 0 33.6725 0 32.7937C0 31.9148 0.712442 31.2024 1.59128 31.2024Z" fill="#6319C3"/>
<path opacity="0.7" d="M58.5695 39.0621C59.5746 39.0621 60.3895 38.2473 60.3895 37.2421C60.3895 36.237 59.5746 35.4221 58.5695 35.4221C57.5643 35.4221 56.7495 36.237 56.7495 37.2421C56.7495 38.2473 57.5643 39.0621 58.5695 39.0621Z" fill="#FF5362"/>
<path opacity="0.7" d="M65.6918 34.3849C67.8208 34.3849 69.5467 32.659 69.5467 30.53C69.5467 28.401 67.8208 26.6751 65.6918 26.6751C63.5628 26.6751 61.8369 28.401 61.8369 30.53C61.8369 32.659 63.5628 34.3849 65.6918 34.3849Z" fill="#004CF2"/>
<path opacity="0.7" d="M8.30367 53.7888C9.40956 53.7888 10.3061 52.8923 10.3061 51.7864C10.3061 50.6805 9.40956 49.784 8.30367 49.784C7.19777 49.784 6.30127 50.6805 6.30127 51.7864C6.30127 52.8923 7.19777 53.7888 8.30367 53.7888Z" fill="#FBA536"/>
</svg>
