<svg width="31" height="31" viewBox="0 0 31 31" fill="none" xmlns="http://www.w3.org/2000/svg">
<circle cx="15.5" cy="15.5" r="15.5" fill="#F5F5F5"/>
<path d="M8.82189 15.38C12.7494 13.6522 17.8319 11.5456 18.5334 11.2541C20.3738 10.4909 20.9384 10.6372 20.6569 12.3272C20.4547 13.5419 19.8713 17.5634 19.4063 20.0666C19.1303 21.5509 18.5113 21.7269 17.5378 21.0847C17.0697 20.7756 14.7069 19.2131 14.1941 18.8462C13.7259 18.5119 13.0803 18.1097 13.89 17.3175C14.1781 17.0353 16.0669 15.2319 17.5384 13.8281C17.7313 13.6437 17.4891 13.3409 17.2666 13.4887C15.2831 14.8041 12.5331 16.6297 12.1831 16.8675C11.6544 17.2266 11.1466 17.3912 10.235 17.1294C9.54626 16.9316 8.87345 16.6956 8.61157 16.6056C7.60314 16.2594 7.84251 15.8109 8.82189 15.38Z" fill="#232323" fill-opacity="0.5"/>
</svg>
