<svg width="1367" height="339" viewBox="0 0 1367 339" fill="none" xmlns="http://www.w3.org/2000/svg">
<path d="M10.5159 109.78C12.409 84.9336 15.9059 67.725 21.0068 58.1543C21.6641 56.5505 22.466 55.1175 23.4126 53.8555C21.8087 53.2244 18.8639 52.4225 14.5782 51.4497C10.2662 50.5031 7.15042 49.5566 5.23104 48.61C0.472028 43.1937 -1.03979 36.581 0.695541 28.7721C2.45716 20.9631 5.73059 16.0989 10.5159 14.1795C47.1419 -0.491907 85.0562 -3.27896 124.259 5.81837C163.462 14.8894 196.13 34.4119 222.266 64.3858C223.212 73.299 223.054 81.8179 221.792 89.9424C220.504 98.0669 218.663 105.311 216.271 111.674C213.878 118.063 209.895 124.439 204.321 130.802C198.747 137.191 193.738 142.528 189.294 146.814C184.825 151.126 178.291 155.832 169.693 160.933C161.069 166.034 154.285 170.017 149.342 172.883C144.426 175.749 136.787 179.246 126.428 183.374C116.069 187.528 108.654 190.486 104.184 192.248C99.7145 193.983 92.0633 196.77 81.2306 200.609C70.3979 204.422 63.5486 206.814 60.6827 207.787C59.7362 216.069 60.8536 228.414 64.0351 244.821C67.2165 261.227 67.8607 273.572 65.9676 281.854C63.0754 290.136 57.3304 296.828 48.7326 301.929C40.1348 307.03 30.8929 308.305 21.0068 305.754C19.4292 304.808 15.9322 301.14 10.5159 294.751C4.12672 245.057 4.12672 183.4 10.5159 109.78ZM63.0885 98.7768C63.0885 102.616 62.1288 109.228 60.2095 118.615C58.2901 128.028 57.5802 135.521 58.0798 141.095C58.553 146.669 61.1823 150.245 65.9676 151.823C84.4515 158.212 104.92 154.15 127.375 139.636C149.829 125.149 163.764 107.23 169.18 85.8802C155.797 75.6786 144.491 67.7118 135.262 61.98C126.007 56.2481 114.373 51.3839 100.359 47.3874C86.3446 43.4172 73.1192 43.0228 60.6827 46.2042C60.0517 46.2042 60.5381 46.9273 62.142 48.3734C63.7196 49.7932 65.6258 51.8572 67.8607 54.5654C70.0956 57.2735 71.2131 59.7451 71.2131 61.98C71.2131 66.4498 69.8589 72.668 67.1507 80.6348C64.4426 88.6015 63.0885 94.6489 63.0885 98.7768Z" fill="white"/>
<path d="M231.713 150.629C231.713 142.662 234.737 126.65 240.785 102.592C246.858 78.5338 247.66 60.773 243.19 49.3093C242.875 48.3627 242.244 46.0489 241.297 42.3679C240.324 38.7132 239.759 35.9262 239.601 34.0068C239.444 32.0874 239.286 29.6948 239.128 26.8289C238.97 23.9629 239.444 21.5703 240.548 19.6509C241.678 17.7578 243.361 16.1671 245.596 14.8787C274.913 -1.37027 305.347 -4.15731 336.898 6.5176C368.423 17.1925 393.112 36.8727 410.965 65.5583C425.952 89.143 410.663 115.909 365.097 145.857C375.614 201.939 390.904 249.424 410.965 288.312C413.2 292.781 412.161 296.765 407.849 300.262C403.564 303.759 398.397 305.665 392.35 305.98C386.276 306.296 381.018 305.021 376.574 302.155C364.769 292.295 356 278.912 350.268 262.005C344.536 245.125 339.199 227.601 334.256 209.433C329.313 191.264 322.056 176.922 312.485 166.405C309.304 162.592 303.256 160.923 294.343 161.396C285.43 161.869 279.856 164.341 277.621 168.81C273.151 183.14 273.861 203.938 279.751 231.203C285.64 258.443 288.756 275.244 289.098 281.607C289.413 286.077 285.903 289.823 278.567 292.847C271.232 295.871 264.067 296.752 257.073 295.489C251.315 293.57 246.687 288.943 243.19 281.607C239.378 271.747 236.591 260.441 234.829 247.689C233.068 234.937 231.95 225.38 231.477 219.017C231.004 212.627 230.925 200.112 231.24 181.47C231.556 162.829 231.713 152.548 231.713 150.629ZM287.165 88.5119C286.85 89.143 285.89 91.5356 284.286 95.6899C282.709 99.8179 281.683 102.842 281.21 104.761C280.71 106.68 280.224 109.231 279.751 112.412C279.277 115.594 279.435 117.986 280.224 119.59C281.039 121.168 282.564 122.272 284.799 122.903C298.497 126.111 312.669 125.795 327.314 121.956C341.986 118.144 354.58 111.61 365.097 102.355C368.594 100.778 371.539 98.3849 373.932 95.1772C376.324 91.9957 376.403 88.9721 374.168 86.1061C362.705 62.2059 339.764 48.3496 305.347 44.5371C299.93 43.8798 296.105 46.0226 293.87 50.9657C291.635 55.9088 290.123 62.7712 289.334 71.553C288.519 80.3086 287.796 85.9615 287.165 88.5119Z" fill="white"/>
<path d="M436.421 170.95C442.784 148.654 455.129 128.737 473.455 111.2C491.781 93.6886 511.855 83.8156 533.678 81.5807C555.502 79.3458 576.299 90.0207 596.071 113.605C614.214 138.137 620.419 165.061 614.687 194.377C608.955 223.694 593.981 246.476 569.765 262.725C553.832 273.558 537.425 279.224 520.545 279.724C503.639 280.197 487.863 275.333 473.218 265.131C458.231 253.983 447.149 239.956 439.971 223.05C432.819 206.17 431.636 188.803 436.421 170.95ZM486.115 200.135C489.296 214.465 494.949 225.929 503.074 234.526C511.198 243.124 521.321 244.715 533.442 239.299C548.429 232.305 558.867 220.92 564.757 205.144C570.646 189.368 571.514 172.87 567.36 155.648C565.151 147.05 558.946 140.924 548.744 137.269C538.543 133.588 528.985 132.707 520.072 134.627C512.421 135.915 504.454 145.157 496.172 162.352C487.863 179.574 484.511 192.169 486.115 200.135Z" fill="white"/>
<path d="M654.836 335.886C649.42 333.651 646.238 329.339 645.292 322.95C644.345 316.587 644.661 310.855 646.238 305.754C647.527 297.472 652.864 278.751 662.251 249.593C671.664 220.434 675.568 199.163 673.964 185.78C671.729 168.9 662.093 141.818 645.055 104.535C628.017 67.2516 618.381 39.5258 616.146 21.3574C615.173 14.0217 619.709 8.04004 629.753 3.41249C639.797 -1.21506 647.369 -1.13617 652.47 3.64913C660.121 10.3538 666.168 21.2785 670.612 36.4232C675.082 51.5416 679.473 67.1464 683.785 83.2377C688.07 99.3289 693.408 111.2 699.797 118.851C704.898 112.173 711.51 94.7277 719.635 66.5154C727.759 38.3032 737.08 20.3846 747.597 12.7596C752.698 8.92086 758.43 7.00148 764.793 7.00148C771.156 7.00148 776.257 8.74995 780.095 12.2469C783.908 15.7701 784.697 20.2399 782.462 25.6563C756.353 90.3368 738.198 133.667 727.996 155.648C723.526 169.031 725.59 181.31 734.188 192.485C737.054 195.35 736.423 201.884 732.295 212.086C730.691 213.348 726.708 215.096 720.345 217.331C713.956 219.566 709.972 222.748 708.395 226.876C695.958 283.931 688.307 317.402 685.441 327.288C684.179 331.101 680.748 334.203 675.147 336.596C669.573 338.988 662.803 338.752 654.836 335.886Z" fill="white"/>
<path d="M851.323 240.758C836.967 240.758 825.411 237.09 816.656 229.755C807.9 222.419 800.656 213.177 794.925 202.029C790.139 183.545 789.495 162.274 792.992 138.216C796.489 114.158 807.164 96.0684 825.017 83.9473C830.118 80.7659 835.14 80.4504 840.083 83.0008C845.026 85.5512 847.97 89.0613 848.917 93.5311C851.467 102.76 848.917 116.301 841.266 134.154C833.615 152.006 831.393 165.863 834.601 175.723C837.125 184.031 843.895 190.486 854.912 195.087C865.902 199.715 874.421 199.636 880.468 194.851C887.804 189.119 892.984 179.877 896.008 167.125C899.031 154.399 900.701 142.291 901.016 130.801C901.332 119.338 904.198 108.663 909.614 98.7765C915.03 88.8904 923.799 83.1586 935.92 81.581C943.571 86.9973 947.949 94.0833 949.053 102.839C950.184 111.594 949.145 120.047 945.938 128.198C942.756 136.323 939.654 145.722 936.63 156.397C933.606 167.072 932.568 175.907 933.514 182.901C934.172 186.082 934.579 189.198 934.737 192.248C934.895 195.271 934.737 197.901 934.264 200.136C933.764 202.344 932.962 204.895 931.858 207.787C930.754 210.653 929.794 212.953 928.979 214.689C928.19 216.45 926.915 218.843 925.153 221.867C923.418 224.89 922.222 227.204 921.564 228.808C918.383 237.09 916.161 243.545 914.899 248.173C913.611 252.774 912.493 259.465 911.547 268.247C910.574 277.003 911.533 283.931 914.426 289.032C915.057 291.267 914.413 293.331 912.493 295.224C910.574 297.143 907.866 299.141 904.369 301.219C900.872 303.296 898.479 304.965 897.191 306.227C888.277 312.932 879.522 310.382 870.924 298.576C867.085 294.448 866.047 285.535 867.808 271.836C869.57 258.111 869.807 248.541 868.518 243.124C868.518 240.916 867.716 239.641 866.113 239.299C864.535 238.983 862.077 239.154 858.737 239.812C855.372 240.443 852.9 240.758 851.323 240.758Z" fill="white"/>
<path d="M969.365 171.938C968.734 148.037 976.227 128.751 991.845 114.08C1007.46 99.4086 1026.91 93.6768 1050.18 96.8845C1069.29 99.4349 1085.93 108.677 1100.11 124.61C1114.28 140.544 1121.21 158.384 1120.89 178.129C1118.02 187.043 1104.88 198.441 1081.45 212.323C1058.05 226.18 1044.75 234.699 1041.54 237.88C1039.96 238.196 1037.98 239.471 1035.58 241.706C1033.19 243.941 1032.64 246.018 1033.93 247.937C1037.74 254.931 1042.51 259.861 1048.24 262.727C1053.98 265.593 1060.43 266.395 1067.61 265.133C1074.79 263.844 1081.32 262.096 1087.21 259.887C1093.1 257.652 1100.03 254.458 1107.99 250.303C1116.28 256.693 1118.91 265.225 1115.88 275.9C1112.86 286.574 1106.4 292.701 1096.52 294.278C1095.89 294.278 1092.39 294.844 1086.03 295.974C1079.64 297.078 1075.65 297.71 1074.08 297.867C1072.47 298.025 1068.96 298.341 1063.55 298.814C1058.13 299.313 1053.99 299.313 1051.12 298.814C1048.26 298.341 1044.75 297.709 1040.59 296.921C1036.46 296.132 1032.48 294.936 1028.64 293.332C990.412 276.136 970.653 235.671 969.365 171.938ZM1021.46 196.311C1050.15 195.023 1067.36 184.979 1073.09 166.179C1078.19 155.031 1074.05 146.512 1060.67 140.623C1047.28 134.707 1035.33 134.457 1024.82 139.873C1018.45 143.397 1014.23 149.694 1012.16 158.765C1010.08 167.862 1010.16 176.315 1012.39 184.124C1014.63 191.933 1017.65 195.995 1021.46 196.311ZM980.368 9.88137C989.624 1.59911 1000.06 -1.03018 1011.68 1.99351C1023.3 5.01719 1031.03 11.3143 1034.87 20.8849C1039.66 31.7176 1038.86 42.9447 1032.47 54.5661C1026.1 66.1876 1016.71 70.2498 1004.27 66.7529C994.383 63.8869 988.651 61.652 987.073 60.0482C976.871 50.5039 971.771 40.3154 971.771 29.4827C971.771 21.8315 974.637 15.2977 980.368 9.88137ZM1104.17 11.3012C1109.58 14.4826 1112.7 19.5046 1113.52 26.367C1114.3 33.2294 1113.27 39.1979 1110.4 44.2724C1106.88 52.581 1100.58 59.1937 1091.51 64.1104C1082.44 69.0535 1074.23 68.9746 1066.9 63.8738C1061.17 60.0613 1057.26 54.9736 1055.18 48.6108C1053.11 42.2216 1053.03 36.1611 1054.95 30.4292C1056.87 24.6974 1060.05 19.4388 1064.49 14.6535C1068.96 9.86822 1074.71 7.16005 1081.73 6.52902C1088.72 5.89799 1096.2 7.4887 1104.17 11.3012Z" fill="white"/>
<path d="M1132.84 165.231C1130.95 146.748 1133.02 131.366 1139.07 119.087C1145.12 106.835 1155.79 103.259 1171.1 108.36C1176.51 110.253 1180.02 113.829 1181.63 119.087C1183.2 124.346 1183.28 130.091 1181.86 136.322C1180.42 142.528 1179.62 148.969 1179.46 155.648C1179.3 162.352 1180.5 167.94 1183.05 172.409C1187.52 167.94 1191.97 161.485 1196.42 153.045C1200.89 144.605 1204.63 137.032 1207.66 130.328C1210.68 123.649 1214.66 116.958 1219.61 110.253C1224.55 103.575 1229.65 99.6702 1234.91 98.5396C1240.17 97.4353 1247.41 98.3161 1256.64 101.182C1261.11 105.967 1263.99 108.991 1265.28 110.253C1266.54 115.354 1267.74 124.201 1268.87 136.796C1269.97 149.364 1271.64 158.842 1273.88 165.231C1276.11 162.681 1279.13 158.777 1282.95 153.518C1286.76 148.259 1289.94 143.882 1292.49 140.385C1295.04 136.861 1298.31 132.878 1302.31 128.435C1306.28 123.965 1310.11 120.534 1313.79 118.141C1317.44 115.748 1321.43 113.513 1325.74 111.436C1330.02 109.385 1334.48 108.518 1339.11 108.833C1343.74 109.149 1348.6 110.424 1353.7 112.659C1356.88 114.867 1359.02 117.891 1360.13 121.73C1361.26 125.542 1361.83 130.485 1361.83 136.559C1361.83 142.606 1361.98 146.59 1362.3 148.509C1370.27 216.371 1366.6 272.612 1351.29 317.231C1349.38 325.197 1344.04 329.983 1335.28 331.587C1326.53 333.164 1318.48 331.402 1311.15 326.302C1310.51 326.302 1309.88 325.434 1309.25 323.699C1308.6 321.937 1308.27 319.781 1308.27 317.231C1308.27 314.68 1308.6 312.288 1309.25 310.053C1322.32 270.219 1325.19 222.734 1317.85 167.598C1317.85 163.154 1315.62 162.997 1311.15 167.125C1309.23 168.728 1307.95 170.49 1307.32 172.409C1290.44 198.86 1277.06 231.2 1267.17 269.43C1263.67 277.712 1256.9 283.523 1246.86 286.862C1236.82 290.228 1228.93 287.599 1223.2 278.974C1224.48 264.014 1225.37 246.647 1225.84 226.875C1226.31 207.129 1224.8 191.353 1221.3 179.548C1208.87 189.434 1199.86 202.502 1194.29 218.751C1188.71 235 1183.06 255.074 1177.33 278.974C1172.86 285.995 1166 289.505 1156.74 289.505C1147.51 289.505 1141.62 285.995 1139.07 278.974C1134.6 266.249 1132.68 247.857 1133.31 223.799C1133.97 199.715 1133.81 180.192 1132.84 165.231Z" fill="white"/>
</svg>
