<svg width="374" height="298" viewBox="0 0 374 298" fill="none" xmlns="http://www.w3.org/2000/svg">
<path opacity="0.8" d="M163.934 297.878C231.271 297.878 285.857 243.292 285.857 175.955C285.857 108.619 231.271 54.0319 163.934 54.0319C96.5978 54.0319 42.0109 108.619 42.0109 175.955C42.0109 243.292 96.5978 297.878 163.934 297.878Z" fill="#004CF2"/>
<path opacity="0.8" d="M235.888 201.432C278.099 201.432 312.318 167.213 312.318 125.002C312.318 82.7912 278.099 48.5725 235.888 48.5725C193.677 48.5725 159.459 82.7912 159.459 125.002C159.459 167.213 193.677 201.432 235.888 201.432Z" fill="#FBA536"/>
<path opacity="0.7" d="M189.411 35.6966C199.268 35.6966 207.259 27.7057 207.259 17.8483C207.259 7.99096 199.268 0 189.411 0C179.553 0 171.562 7.99096 171.562 17.8483C171.562 27.7057 179.553 35.6966 189.411 35.6966Z" fill="#FF5362"/>
<path opacity="0.8" d="M128.661 241.466C181.927 241.466 225.107 198.285 225.107 145.019C225.107 91.7532 181.927 48.5725 128.661 48.5725C75.3944 48.5725 32.2137 91.7532 32.2137 145.019C32.2137 198.285 75.3944 241.466 128.661 241.466Z" fill="#6319C3"/>
<path opacity="0.8" d="M218.95 291.859C257.836 291.859 289.359 260.335 289.359 221.449C289.359 182.563 257.836 151.039 218.95 151.039C180.064 151.039 148.54 182.563 148.54 221.449C148.54 260.335 180.064 291.859 218.95 291.859Z" fill="#FF5362"/>
<path opacity="0.7" d="M9.25537 167.417C13.9708 167.417 17.7934 171.24 17.7934 175.955C17.7934 180.671 13.9708 184.493 9.25537 184.493C4.53992 184.493 0.7173 180.671 0.7173 175.955C0.7173 171.24 4.53992 167.417 9.25537 167.417Z" fill="#6319C3"/>
<path opacity="0.7" d="M314.973 209.589C320.367 209.589 324.739 205.217 324.739 199.823C324.739 194.43 320.367 190.058 314.973 190.058C309.58 190.058 305.208 194.43 305.208 199.823C305.208 205.217 309.58 209.589 314.973 209.589Z" fill="#FF5362"/>
<path opacity="0.7" d="M353.188 184.493C364.612 184.493 373.872 175.233 373.872 163.81C373.872 152.386 364.612 143.126 353.188 143.126C341.765 143.126 332.505 152.386 332.505 163.81C332.505 175.233 341.765 184.493 353.188 184.493Z" fill="#004CF2"/>
<path opacity="0.7" d="M45.271 288.605C51.2047 288.605 56.0149 283.795 56.0149 277.861C56.0149 271.928 51.2047 267.117 45.271 267.117C39.3373 267.117 34.5271 271.928 34.5271 277.861C34.5271 283.795 39.3373 288.605 45.271 288.605Z" fill="#FBA536"/>
</svg>
